<svg id="Calque_1" data-name="Calque 1" xmlns="http://www.w3.org/2000/svg" xmlns:xlink="http://www.w3.org/1999/xlink" viewBox="0 0 355.77 193.34"><defs><style>.cls-1{fill:#575756;}.cls-2,.cls-3,.cls-4{fill:none;stroke-miterlimit:10;}.cls-2{stroke:#2c2e7e;}.cls-2,.cls-4{stroke-width:8.24px;}.cls-3{stroke:#9d9d9c;stroke-width:5.76px;}.cls-4{stroke:#e31b2c;}.cls-5{fill:url(#Dégradé_sans_nom_41);}.cls-6{fill:url(#Dégradé_sans_nom_53);}.cls-7{fill:#fcc02f;}.cls-8{fill:#f18700;}.cls-9{fill:url(#Dégradé_sans_nom_41-2);}</style><linearGradient id="Dégradé_sans_nom_41" x1="165.94" y1="52.61" x2="230.01" y2="52.61" gradientUnits="userSpaceOnUse"><stop offset="0" stop-color="#4a96d2"/><stop offset="0.16" stop-color="#4a96d2"/><stop offset="0.29" stop-color="#4186c3"/><stop offset="0.55" stop-color="#295c9e"/><stop offset="0.76" stop-color="#13357a"/></linearGradient><linearGradient id="Dégradé_sans_nom_53" x1="-601.59" y1="672.67" x2="-573.7" y2="672.67" gradientTransform="translate(-385.35 684.74) rotate(180)" gradientUnits="userSpaceOnUse"><stop offset="0.2" stop-color="#b2b2b2"/><stop offset="0.32" stop-color="#a9a9a9"/><stop offset="0.51" stop-color="#909090"/><stop offset="0.76" stop-color="#696968"/><stop offset="0.85" stop-color="#575756"/></linearGradient><linearGradient id="Dégradé_sans_nom_41-2" x1="163.5" y1="14.83" x2="163.5" y2="105.23" xlink:href="#Dégradé_sans_nom_41"/></defs><title>logo-valabre-horizontal</title><path class="cls-1" d="M0,119.28H11.67l15.52,43,16-43H54.15l-23,57H22.37Z"/><path class="cls-1" d="M70.81,119.28h8.77l24.54,57H92.53l-5.31-13H62.52l-5.15,13H46Zm12.87,35.24-8.77-23.17L66,154.52Z"/><path class="cls-1" d="M110.47,119.28h10.14v47.79h24.22v9.17H110.47Z"/><path class="cls-1" d="M174.1,119.28h8.77l24.54,57H195.83l-5.31-13h-24.7l-5.15,13H149.32ZM187,154.52l-8.77-23.17-8.93,23.17Z"/><path class="cls-1" d="M213.77,119.28H236c8.61,0,17.46,3.94,17.46,14.32,0,6.44-4,10.7-9.9,12.47v.16A13.56,13.56,0,0,1,255.84,160c0,12.39-10.78,16.25-21.56,16.25H213.77Zm10.13,23.17h9.26c6.75,0,10.13-2.9,10.13-7.16,0-4.91-3.38-7.32-11-7.32H223.9Zm0,25.1h9.34c5.23,0,12.47-.88,12.47-8.37,0-6-3.87-8-12.07-8H223.9Z"/><path class="cls-1" d="M265.9,119.28h19.79c10.94,0,21.24,3.54,21.24,16.33,0,8.21-4.74,14.24-13.19,15.45l14,25.18H295.48l-12-24.13H276v24.13H265.9Zm18,24.14c5.71,0,12.39-.49,12.39-7.89,0-6.76-6.27-7.56-11.5-7.56H276v15.45Z"/><path class="cls-1" d="M316.59,119.28h37.73v9.17h-27.6v14h26.15v9.17H326.72v15.45h29v9.17H316.59Z"/><line class="cls-2" x1="266.24" y1="189.22" x2="307.53" y2="189.22"/><line class="cls-3" x1="22.43" y1="190.37" x2="256.69" y2="190.37"/><line class="cls-4" x1="316.65" y1="189.22" x2="355.63" y2="189.22"/><polygon class="cls-5" points="165.94 105.22 216.22 0 230.01 24.43 191.48 105.22 165.94 105.22"/><polygon class="cls-6" points="188.53 0 216.24 0 204.72 24.07 188.35 24.14 188.53 0"/><polygon class="cls-7" points="212.23 10.09 213.99 16.3 211.46 18.1 214.88 19.81 216.71 25.08 217.06 20.74 219.16 21.02 217.24 17.28 216.87 11.64 215.42 14.38 212.23 10.09"/><polygon class="cls-7" points="216.31 27.89 217.43 35.19 221.88 36.52 217.94 39.64 218.44 45.77 214.71 41.65 209.14 45.19 212.09 38.03 207.08 32.22 213.82 34.11 216.31 27.89"/><polygon class="cls-7" points="208.12 47.9 204.64 53.19 198.19 54.41 201.55 57.05 196.87 63.17 203.87 58.42 206.77 60.03 207.59 55.7 211.49 52.24 207.95 52.8 208.12 47.9"/><polygon class="cls-8" points="146.23 13.34 122.06 13.34 134.1 38.63 146.23 13.34"/><polygon class="cls-9" points="148.36 14.83 135.51 41.63 165.94 105.22 191.48 105.22 148.36 14.83"/></svg>